<?xml version="1.0" standalone="no"?>
<!DOCTYPE svg PUBLIC "-//W3C//DTD SVG 20010904//EN"
 "http://www.w3.org/TR/2001/REC-SVG-20010904/DTD/svg10.dtd">
<svg version="1.0" xmlns="http://www.w3.org/2000/svg"
 width="1024.000000pt" height="1024.000000pt" viewBox="0 0 1024.000000 1024.000000"
 preserveAspectRatio="xMidYMid meet">

<g transform="translate(0.000000,1024.000000) scale(0.100000,-0.100000)"
fill="#000000" stroke="none">
<path d="M4355 9766 c-57 -25 -95 -85 -95 -148 0 -18 140 -361 341 -833 l341
-803 -1115 -2218 -1114 -2219 -1064 -711 -1064 -711 -5 278 c-5 261 -6 279
-26 305 -39 53 -71 69 -134 69 -63 0 -95 -16 -134 -69 -21 -27 -21 -32 -21
-1086 0 -1054 0 -1059 21 -1086 11 -15 33 -37 48 -48 27 -21 27 -21 1814 -24
1196 -2 1799 0 1822 7 20 6 48 23 62 38 14 16 267 506 561 1091 l534 1063 535
-1074 c461 -924 540 -1077 569 -1098 l34 -24 1807 0 1807 0 27 21 c15 11 37
33 48 48 21 27 21 32 21 1086 0 1054 0 1059 -21 1086 -39 53 -71 69 -134 69
-63 0 -95 -16 -134 -69 -20 -26 -21 -44 -26 -305 l-5 -278 -1050 701 -1050
701 -487 975 -486 975 -1 433 -1 432 720 0 c583 0 727 3 753 14 54 22 94 77
102 138 3 29 5 260 3 513 -3 459 -3 460 -26 497 -13 21 -40 45 -66 57 -42 21
-55 21 -763 21 l-720 0 -5 51 c-9 91 -67 144 -158 144 -63 0 -95 -16 -134 -69
-21 -27 -21 -39 -26 -798 l-5 -771 -469 943 c-416 837 -468 947 -459 969 5 14
155 366 331 782 193 455 322 769 322 788 0 135 -162 210 -263 122 -27 -24 -78
-138 -312 -690 -154 -363 -282 -661 -285 -661 -3 0 -131 297 -285 661 -187
440 -288 668 -305 684 -47 45 -116 57 -175 31z m1150 -2846 c201 -401 365
-732 365 -735 0 -3 -331 -5 -736 -5 -405 0 -734 3 -732 8 14 31 734 1462 735
1462 2 0 167 -328 368 -730z m640 -1290 c63 -126 115 -234 115 -240 0 -7 -377
-10 -1130 -10 -621 0 -1130 3 -1130 6 0 3 54 111 121 240 l121 234 894 0 894
0 115 -230z m702 -1407 c228 -461 512 -1031 630 -1268 119 -236 321 -643 449
-902 l233 -473 -1068 0 -1067 0 -374 757 c-206 416 -386 770 -399 785 -51 62
-134 76 -206 35 -39 -21 -53 -48 -430 -797 l-390 -775 -1067 -3 c-588 -1
-1068 0 -1068 4 0 3 302 606 671 1340 l671 1334 917 0 918 0 34 23 c106 71
106 203 0 274 l-34 23 -833 0 c-459 0 -834 2 -834 5 0 3 53 111 117 240 l118
235 1298 0 1299 0 415 -837z m-4980 -2355 l-545 -1083 -371 -3 -371 -2 0 477
1 478 912 607 c502 335 914 608 915 608 2 0 -241 -487 -541 -1082z m7793 -610
l0 -478 -371 0 -370 0 -535 1076 c-293 592 -534 1078 -534 1080 0 2 407 -267
905 -598 l904 -603 1 -477z m-5720 -238 l-120 -240 -1065 0 c-586 0 -1065 2
-1065 5 0 3 53 111 117 240 l118 235 1067 0 1068 0 -120 -240z m4496 4 c63
-129 114 -237 114 -240 0 -2 -478 -4 -1063 -4 l-1062 0 -118 235 c-64 129
-117 237 -117 240 0 3 480 5 1066 5 l1065 0 115 -236z"/>
<path d="M5740 4558 c-105 -71 -108 -197 -7 -272 40 -29 134 -29 173 0 53 39
69 71 69 134 0 92 -54 150 -147 158 -44 3 -59 0 -88 -20z"/>
<path d="M8025 9444 c-38 -8 -113 -35 -164 -61 -79 -38 -110 -61 -181 -132
-48 -47 -100 -109 -116 -138 -27 -49 -30 -51 -59 -45 -16 4 -79 7 -140 7 -130
0 -214 -22 -313 -82 -189 -115 -309 -311 -319 -523 -5 -88 -3 -98 18 -129 53
-76 132 -100 206 -62 56 28 82 74 92 163 5 41 18 95 29 120 27 62 95 134 157
166 43 23 62 27 140 27 82 0 96 -3 156 -32 69 -34 124 -42 162 -22 46 24 78
64 93 119 39 137 131 248 242 291 43 18 77 23 142 23 166 0 274 -73 356 -240
25 -51 57 -100 70 -109 14 -9 53 -24 87 -35 143 -44 226 -153 243 -316 7 -70
29 -113 77 -148 28 -21 38 -21 452 -21 412 0 424 1 451 21 53 39 69 71 69 134
0 63 -16 95 -69 134 -26 20 -44 21 -353 26 l-326 5 -18 52 c-54 158 -175 301
-315 369 -74 36 -83 43 -114 99 -18 33 -71 98 -119 146 -72 72 -102 94 -181
132 -151 74 -298 93 -455 61z"/>
<path d="M2266 9164 c-150 -33 -274 -101 -381 -209 -156 -156 -235 -360 -222
-575 8 -118 27 -192 77 -295 96 -195 278 -344 490 -402 90 -24 290 -24 380 1
265 72 475 282 547 546 24 90 24 290 0 380 -72 262 -283 475 -542 545 -87 24
-264 28 -349 9z m259 -319 c171 -45 298 -183 328 -359 48 -283 -216 -547 -499
-499 -239 41 -406 269 -367 499 44 256 293 422 538 359z"/>
</g>
</svg>
