<?xml version="1.0" standalone="no"?>
<!DOCTYPE svg PUBLIC "-//W3C//DTD SVG 20010904//EN"
 "http://www.w3.org/TR/2001/REC-SVG-20010904/DTD/svg10.dtd">
<svg version="1.0" xmlns="http://www.w3.org/2000/svg"
 width="1024.000000pt" height="1024.000000pt" viewBox="0 0 1024.000000 1024.000000"
 preserveAspectRatio="xMidYMid meet">

<g transform="translate(0.000000,1024.000000) scale(0.100000,-0.100000)"
fill="#000000" stroke="none">
<path d="M4636 9425 c-106 -37 -163 -162 -120 -263 8 -20 92 -153 186 -294
l170 -257 -63 -98 c-74 -114 -1071 -1622 -3009 -4550 l-1385 -2092 -6 132 c-7
143 -13 166 -54 216 -94 111 -269 89 -336 -41 -18 -35 -19 -67 -19 -618 0
-551 1 -583 19 -618 49 -96 161 -137 259 -97 79 34 119 97 128 207 l6 73 252
379 251 379 5 -464 c5 -428 6 -467 24 -502 23 -46 79 -94 126 -107 48 -14
8052 -14 8100 0 47 13 103 61 126 107 18 35 19 74 24 502 l5 465 251 -380 251
-379 7 -73 c10 -110 49 -173 128 -207 98 -40 210 1 259 97 18 35 19 67 19 618
0 551 -1 583 -19 618 -67 130 -242 152 -336 41 -41 -50 -47 -73 -54 -216 l-6
-132 -1372 2072 c-1763 2664 -2919 4412 -3012 4555 l-73 112 170 258 c94 141
178 274 186 294 33 77 10 166 -57 225 -77 67 -186 68 -260 3 -18 -16 -89 -112
-157 -214 -67 -102 -126 -186 -130 -186 -4 0 -63 84 -130 186 -68 102 -139
198 -157 214 -54 48 -126 61 -197 35z m270 -4871 c-2 -6 -24 -14 -48 -17 -80
-11 -222 -58 -323 -106 -395 -188 -658 -517 -768 -961 -21 -83 -21 -107 -24
-1173 l-4 -1087 -1199 0 -1200 0 0 641 0 641 1322 2006 c727 1104 1529 2322
1782 2706 l461 700 3 -1670 c1 -918 0 -1674 -2 -1680z m2217 633 l1777 -2698
0 -635 0 -634 -607 0 c-335 0 -874 -3 -1200 -7 l-592 -6 -4 1089 c-3 1067 -3
1091 -24 1174 -12 47 -31 114 -43 150 -153 456 -562 820 -1025 913 l-70 14 -3
1678 c-1 924 2 1675 6 1670 5 -6 808 -1224 1785 -2708z"/>
</g>
</svg>
